<?xml version="1.0" encoding="iso-8859-1"?>
<!DOCTYPE svg PUBLIC "-//W3C//DTD SVG 1.0//EN"
	        "http://www.w3.org/TR/2001/REC-SVG-20010904/DTD/svg10.dtd">
<svg width="" height="100%" id="SVGglobal" xmlns="http://www.w3.org/2000/svg" xmlns:xlink="http://www.w3.org/1999/xlink">
	<style type="text/css"><![CDATA[
		.styleFontLegende{font-size:10pt;}
		.styleFontChoix{fill:red;font-size:10pt;}
		.styleFontMouseOver{font-size:30pt;}
		.styleI{fill:none;stroke:none;}
		.styleF{fill:white;stroke:#000000;}
		.styleM{fill:orangered;stroke:#000000;}
		.styleO{fill:teal;stroke:#000000;}
		.styleU{fill:blue;stroke:#000000;}
		.styleT{fill:none;stroke:#000000;}
		.styleB{fill:none;stroke:#000000;}
		.styleA{fill:none;stroke:#000000;}
		.styleS{fill:none;stroke:#000000;}
		.styleE{fill:none;stroke:#000000;}
		.styleUsrc{fill:blue;stroke:#000000;}
		.styleAsrc{fill:green;stroke:#000000;}
		.styleBsrc{fill:red;stroke:#000000;}
		.styleTsrc{fill:yellow;stroke:#000000;}
		.styleSsrc{fill:orange;stroke:#000000;}
		.styleEsrc{fill:purple;stroke:#000000;}
		.styleUdst{opacity:0.5;fill:blue;stroke:none;}
		.styleAdst{opacity:0.5;fill:green;stroke:none;}
		.styleTdst{opacity:0.5;fill:yellow;stroke:none;}
		.styleBdst{opacity:0.5;fill:red;stroke:none;}
		.styleSdst{opacity:0.5;fill:orange;stroke:none;}
		.styleEdst{opacity:0.5;fill:purple;stroke:none;}
	]]></style>
	  <defs>
		  <linearGradient id="lGrad_M:M:." x1="20%" y1="100%" x2="7%" y2="80%"  >
		       <stop offset="35%" stop-color="teal"   />
		       <stop offset="65%" stop-color="teal" />
		    </linearGradient>
		  <linearGradient id="lGrad_M:M:." x1="20%" y1="100%" x2="7%" y2="80%"  >
		    <stop offset="35%" stop-color="orangered"   />
		    <stop offset="65%" stop-color="orangered" />
		 </linearGradient>
		 <linearGradient id="lGrad_O:M:." x1="20%" y1="100%" x2="7%" y2="80%"  >
	       <stop id="SrcO" offset="5%" stop-color="teal"   />
	       <stop id="SrcM" offset="95%" stop-color="orangered" />
	    </linearGradient>
	    <linearGradient id="lGrad_M:O:."  gradientTransform="rotate(70)">
	       <stop offset="40%" stop-color="orangered"/>
	       <stop offset="60%" stop-color="teal" />
	    </linearGradient>
	    <linearGradient id="lGrad_O:E:." x1="100%" y1="10%" x2="45%" y2="80%">
	       <stop offset="40%" stop-color="teal" />
	       <stop offset="60%" stop-color="purple" />
	    </linearGradient>
	    <linearGradient id="lGrad_M:E:." >
	       <stop offset="50%" stop-color="orangered" />
	       <stop offset="50%" stop-color="purple" />
	    </linearGradient>
	    <linearGradient id="Css_Events" >
	       <stop id="relat1"  offset="40%" stop-color="teal" />
	       <stop id="relat2" offset="60%" stop-color="green" />
	    </linearGradient>
	
      </defs>

 <script xlink:href="../js/iemlBoussole.js" />  

	<g id="gGlobal">
		<g id="CreaPave">
			<circle cx="10" cy="10" r="5" fill="black" onclick="ShowPoint()" />		
			<circle cx="10" cy="25" r="5" fill="black" onclick="ShowPave()" />		
			<circle cx="10" cy="40" r="5" fill="black" onclick="AddPave()" />		
			<g id="ShowPave" transform="scale(0.6) translate(-140,-60)" >
				<polygon id="dynaPave"  iemlCode="*O:**" onclick="SelectPave(evt,'*F:**');ShowHidePave(this.id);" class="styleO" points="" />
			</g>
		</g>
		<g id="legende">
			<rect x="400" y="10" width="400" height="110" stroke="black" stroke-width="2" fill="white"/>
			<text x="410" y="30" class="styleFontLegende">Source : </text>
			<text id="txtSrc" x="490" y="30" class="styleFontChoix">Choisissez une source</text>
			<text x="410" y="50" class="styleFontLegende">Destination : </text>
			<text id="txtDst" x="490" y="50" class="styleFontChoix">Choisissez une destination</text>
			<text x="410" y="70" class="styleFontLegende">Expression : </text>
			<text id="txtTrl" x="490" y="70" class="styleFontChoix">Choisissez une expression</text>
			<g id="btnRefresh" onclick="init()">
				<rect x="410" y="80" width="70" height="20" stroke="black" stroke-width="2" fill="lightsteelblue"/>
				<text x="420" y="95" class="styleFontLegende">initialiser</text>
			</g>
			<text id="txtMouseOver" x="500" y="110" class="styleFontMouseOver">Pointez un bloc</text>
			<text id="txtRecordPoint" x="0" y="500" class="styleFontMouseOver"> </text>
		</g>
		<g visibility="hidden">
			<g transform="rotate(60) translate(100,-300)" >
 				<polygon id="g_E1" iemlCode="*E:**" onclick="clickSrc(evt)" class="styleEsrc" points="357.031,140.311 477.147,207.023 357.142,276.501 317.891,208.518 "/>
			</g>
			<g transform="rotate(40) translate(100,-300)" >
				<polygon id="g_E2" iemlCode="*E:**" onclick="clickSrc(evt)" fill="url(#MonDegrade)" points="357.031,140.311 477.147,207.023 357.142,276.501 317.891,208.518 "/>
			</g>
			<line x1="356.962" y1="0.882" x2="278.628" y2="139.549" stroke-width="2" stroke="black" />
		</g>
		<g id="g_primitives" >
			<polygon id="g_E" iemlCode="*E:**" onclick="clickSrc(evt)" class="styleI" points="357.031,140.311 477.147,207.023 357.142,276.501 317.891,208.518 "/>
			<polygon id="g_U" iemlCode="*U:**" onclick="clickSrc(evt)" class="styleI" points="239.128,71.549 356.962,0.882 357.128,139.549 278.628,139.549 "/>
			<polygon id="g_A" iemlCode="*A:**" onclick="clickSrc(evt)" class="styleI" points="121.159,140.236 118.876,2.856 239.049,72.045 199.799,140.028 "/>
			<polygon id="g_T" iemlCode="*T:**" onclick="clickSrc(evt)" class="styleI" points="121.129,275.981 1.014,209.267 121.019,139.789 160.269,207.772 "/>
			<polygon id="g_B" iemlCode="*B:**" onclick="clickSrc(evt)" class="styleI" points="356.334,275.722 358.616,413.102 238.444,343.913 277.694,275.929 "/>	
			<polygon id="g_S" iemlCode="*S:**" onclick="clickSrc(evt)" class="styleI" points="238.367,344.408 120.533,415.074 120.366,276.408 198.866,276.408 "/>
					
			 <g>
				<g id="g_*F:**" iemlCode="*F:**" onmouseover="ModifTxtMouseOver(evt)"  onclick="SelectPave(evt,'*F:**')">
				<polygon id="g_*F:**_0" iemlCode="*F:**" onclick="ShowHidePave(this.id)" fill="url(#Css_Events)" points="118.876,2.856 118.876,2.856 239.049,72.045 199.799,140.028 "/>
                <polygon id="g_*F:**_0" iemlCode="*F:**" onclick="ShowHidePave(this.id)" fill="url(#Css_Events)" points="121.159,140.236 118.876,2.856 199.799,140.028 199.799,140.028 "/>
            </g>
				<polygon id="g_*F:**_1" visibility="hidden" iemlCode="*O:**" onclick="SelectPave(evt,'*F:**');ShowHidePave(this.id);" class="styleO" points="199.653,139.729 238.932,139.729 278.177,139.729 297.815,173.746 297.815,173.746 317.454,207.761 278.177,207.76 238.898,207.761 219.293,173.745 " />
					<polygon id="g_*O:**_1" visibility="hidden" iemlCode="*A:**" onclick="SelectPave(evt,'*F:**')" class="styleAsrc" points="238.932,139.729 278.21,139.729 258.57,173.745 238.932,207.76 219.293,173.745 199.653,139.729 "/>
					<polygon id="g_*O:**_2" visibility="hidden" iemlCode="*U:**" onclick="SelectPave(evt,'*F:**')" class="styleUsrc"  points="258.537,173.746 278.177,139.729 297.815,173.746 317.454,207.761 278.177,207.76 238.898,207.761 "/>

				<polygon id="g_*F:**_2" visibility="hidden" iemlCode="*M:**" onclick="SelectPave(evt,'*F:**');ShowHidePave(this.id);" class="styleM" points=" 199.654,139.729 219.292,173.746 239.089,208.178 258.729,242.193 278.367,276.209 239.089,276.208 199.812,276.209 179.671,241.53 160.032,207.515 180.014,173.746 "/>
					<polygon id="g_*M:**_1" visibility="hidden" iemlCode="*T:**" onclick="SelectPave(evt,'*F:**')" class="styleTsrc" points="180.014,173.746 199.654,139.729 219.292,173.746 238.931,207.761 199.654,207.76 160.375,207.761 "/>
					<polygon id="g_*M:**_2" visibility="hidden" iemlCode="*S:**" onclick="SelectPave(evt,'*F:**')" class="styleSsrc" points="218.949,241.531 199.31,275.546 179.671,241.53 160.032,207.515 199.31,207.515 238.588,207.515 "/>
					<polygon id="g_*M:**_3" visibility="hidden" iemlCode="*B:**" onclick="SelectPave(evt,'*F:**')" class="styleBsrc" points="258.729,242.193 278.367,276.209 239.089,276.208 199.812,276.209 219.45,242.193 239.089,208.178 "/>

				<polygon id="g_*F:**_3" visibility="hidden" iemlCode="*E:**" onclick="SelectPave(evt,'*F:**')" class="styleEsrc"  points="278.229,208.217 317.509,208.217 297.869,242.233 278.23,276.249 258.592,242.233 238.953,208.217 "/>

				<line id="g_*F:**_on" visibility="visible" stroke-width="2" stroke="white" x1="199.799" y1="140.028" x2="118.876" y2="2.856"  />

			</g>
		</g>

	
		<g id="g_events">
             <g>
				<g id="g_*(O:|M:)**" iemlCode="*(O:|M:)**" onmouseover="ModifTxtMouseOver(evt)" >
					<polygon id="g_*(O:|M:)**_Src" iemlCode="*(O:|M:)**" onclick="ShowHidePave(this.id)" fill="url(#lGrad_O:E:.)"  points="356.962,0.882 356.962,0.882 357.128,139.549 278.628,139.549 "/>
                	<polygon id="g_*(O:|M:)**_Des" iemlCode="*(O:|M:)**" onclick="ShowHidePave(this.id)" fill="url(#lGrad_M:E:.)" points="239.128,71.549 356.962,0.882 357.128,139.549 278.628,139.549 "/>
               </g>
				<polygon id="g_*(O:|M:)**_1" iemlCode="*O:E**"   visibility="hidden" onclick="SelectPave(evt,'*(O:|M:)**')"  fill="url(#lGrad_O:E:.)"  points="278.229,208.217 317.509,208.217 297.869,242.233 278.23,276.249 258.592,242.233 238.953,208.217 "/>
				<polygon id="g_*(O:|M:)**_3" iemlCode="*O:O:.**" visibility="hidden" onclick="SelectPave(evt,'*(O:|M:)**')"  class="styleO" points="238.932,139.729 278.21,139.729 258.57,173.745 238.932,207.76 199.653,139.729 199.653,139.729 "/>
  
				<polygon id="g_*(O:|M:)**_2" iemlCode="*M:M:.**" visibility="hidden" onclick="SelectPave(evt,'*(O:|M:)**')"  class="styleM" points="180.014,173.746 199.654,139.729 219.292,173.746 238.931,207.761 199.654,207.76 160.375,207.761 "/>
				

				<polygon id="g_*(O:|M:)**_4" iemlCode="*O:M:.**" visibility="hidden" onclick="SelectPave(evt,'*(O:|M:)**')"  fill="url(#lGrad_O:M:.)" points="258.537,173.746 278.177,139.729 297.815,173.746 317.454,207.761 278.177,207.76 238.898,207.761 "/>
				<polygon id="g_*(O:|M:)**_5" iemlCode="*M:O:.**" visibility="hidden" onclick="SelectPave(evt,'*(O:|M:)**')"  fill="url(#lGrad_M:O:.)" points="218.949,241.531 199.31,275.546 179.671,241.53 160.032,207.515 199.31,207.515 238.588,207.515 "/>

				<polygon id="g_*(O:|M:)**_6" iemlCode="*M:E:**" visibility="hidden" onclick="SelectPave(evt,'*(O:|M:)**')"   fill="url(#lGrad_M:E:.)" points="258.729,242.193 278.367,276.209 239.089,276.208 199.812,276.209 219.45,242.193 239.089,208.178 "/>

				<line id="g_*(O:|M:)**_on" visibility="visible" stroke-width="2" stroke="white" x1="356.962" y1="0.882" x2="278.628" y2="139.549"  />

			</g>



			<g id="g_events_E">
				<polygon id="g_E_1" iemlCode="**E:.**" onclick="clickSrc(evt)" class="styleI" points="258.729,242.193 278.367,276.209 239.089,276.208 199.812,276.209 219.45,242.193 239.089,208.178 "/>
				<polygon id="g_E_2" iemlCode="**E:.**" onclick="clickSrc(evt)" class="styleI"  points="278.229,208.217 317.509,208.217 297.869,242.233 278.23,276.249 258.592,242.233 238.953,208.217 "/>
				<polygon id="g_E_3" iemlCode="**E:.**" onclick="clickSrc(evt)" class="styleI"  points="317.66,140.283 356.94,140.283 337.3,174.299 317.661,208.314 298.022,174.298 278.383,140.283 "/>
				<polygon id="g_E_4" iemlCode="**E:.**" onclick="clickSrc(evt)" class="styleI" points="337.25,242.277 356.89,276.293 317.61,276.293 278.334,276.292 297.972,242.278 317.612,208.261 "/>
				<polygon id="g_E_5" iemlCode="**E:.**" onclick="clickSrc(evt)" class="styleI" points="238.967,140.213 278.248,140.214 258.608,174.23 238.968,208.246 219.331,174.23 199.692,140.214 "/>
				<polygon id="g_E_6" iemlCode="**E:.**" onclick="clickSrc(evt)" class="styleI" points="297.887,174.229 317.526,208.246 278.247,208.245 238.969,208.246 258.609,174.23 278.248,140.214 "/>
			</g>
			<g id="g_events_U">
				<polygon id="g_U_1" iemlCode="*U:.**" onclick="clickSrc(evt)" class="styleI" points="219.419,105.63 239.059,71.614 258.698,105.63 278.337,139.646 239.059,139.645 199.781,139.646 "/>
				<polygon id="g_U_2" iemlCode="*U:.**" onclick="clickSrc(evt)" class="styleI" points="317.544,139.663 356.823,139.663 337.183,173.678 317.544,207.694 297.905,173.678 278.267,139.663 "/>
				<polygon id="g_U_3" iemlCode="*U:.**" onclick="clickSrc(evt)" class="styleI" points="238.932,139.729 278.21,139.729 258.57,173.745 238.932,207.76 219.293,173.745 199.653,139.729 "/>
				<polygon id="g_U_4" iemlCode="*U:.**" onclick="clickSrc(evt)" class="styleI" points="258.537,173.746 278.177,139.729 297.815,173.746 317.454,207.761 278.177,207.76 238.898,207.761 "/>
				<polygon id="g_U_5" iemlCode="*U:.**" onclick="clickSrc(evt)" class="styleI" points="180.014,173.746 199.654,139.729 219.292,173.746 238.931,207.761 199.654,207.76 160.375,207.761 "/>
				<polygon id="g_U_6" iemlCode="*U:.**" onclick="clickSrc(evt)" class="styleI" points="278.21,207.623 317.489,207.623 297.849,241.638 278.21,275.654 258.571,241.638 238.932,207.623 "/>
			</g>
			<g id="g_events_B">
				<polygon id="g_B_1" iemlCode="*B:.**" onclick="clickSrc(evt)" class="styleI" points="336.672,241.612 356.312,275.629 317.033,275.628 277.757,275.628 297.396,241.613 317.033,207.597 "/>
				<polygon id="g_B_3" iemlCode="*B:.**" onclick="clickSrc(evt)" class="styleI" points="218.949,241.531 199.31,275.546 179.671,241.53 160.032,207.515 199.31,207.515 238.588,207.515 "/>
				<polygon id="g_B_2" iemlCode="*B:.**" onclick="clickSrc(evt)" class="styleI" points="258.124,241.432 277.765,275.448 238.485,275.448 199.208,275.448 218.847,241.432 238.486,207.417 "/>
				<polygon id="g_B_4" iemlCode="*B:.**" onclick="clickSrc(evt)" class="styleI" points="258.138,309.575 238.498,343.59 218.859,309.575 199.221,275.559 238.498,275.559 277.776,275.559 "/>
				<polygon id="g_B_5" iemlCode="*B:.**" onclick="clickSrc(evt)" class="styleI" points="297.386,173.427 317.025,207.446 277.747,207.445 238.469,207.444 258.108,173.43 277.747,139.414 "/>
				<polygon id="g_B_6" iemlCode="*B:.**" onclick="clickSrc(evt)" class="styleI" points="297.387,241.461 277.747,275.478 258.108,241.46 238.469,207.445 277.747,207.446 317.026,207.445 "/>
			</g>
			<g id="g_events_A">
				<polygon id="g_A_1" iemlCode="*A:.**" onclick="clickSrc(evt)" class="styleI" points="258.544,174.427 278.183,140.411 297.821,174.427 317.46,208.442 278.183,208.442 238.904,208.443 "/>
				<polygon id="g_A_2" iemlCode="*A:.**" onclick="clickSrc(evt)" class="styleI" points="219.369,174.526 199.729,140.509 239.008,140.51 278.285,140.51 258.646,174.525 239.007,208.542 "/>
				<polygon id="g_A_3" iemlCode="*A:.**" onclick="clickSrc(evt)" class="styleI" points="140.82,174.345 121.181,140.329 160.459,140.329 199.737,140.33 180.098,174.344 160.459,208.361 "/>
				<polygon id="g_A_4" iemlCode="*A:.**" onclick="clickSrc(evt)" class="styleI" points="219.355,106.383 238.995,72.367 258.634,106.383 278.272,140.398 238.995,140.398 199.716,140.398 "/>
				<polygon id="g_A_5" iemlCode="*A:.**" onclick="clickSrc(evt)" class="styleI" points="180.107,242.53 160.467,208.512 199.746,208.513 239.024,208.513 219.384,242.528 199.746,276.543 "/>
				<polygon id="g_A_6" iemlCode="*A:.**" onclick="clickSrc(evt)" class="styleI" points="180.106,174.496 199.745,140.48 219.384,174.497 239.023,208.512 199.746,208.512 160.467,208.512 "/>
			</g>
			<g id="g_events_T">
				<polygon id="g_T_1" iemlCode="*T:.**" onclick="clickSrc(evt)" class="styleI" points="219.432,174.097 199.792,140.081 239.071,140.082 278.349,140.082 258.71,174.097 239.071,208.113 "/>
				<polygon id="g_T_2" iemlCode="*T:.**" onclick="clickSrc(evt)" class="styleI" points="199.93,208.073 160.65,208.073 180.291,174.057 199.93,140.042 219.568,174.057 239.208,208.073 "/>
				<polygon id="g_T_3" iemlCode="*T:.**" onclick="clickSrc(evt)" class="styleI" points="160.5,276.008 121.22,276.008 140.86,241.992 160.499,207.977 180.137,241.992 199.777,276.008 "/>
				<polygon id="g_T_4" iemlCode="*T:.**" onclick="clickSrc(evt)" class="styleI" points="140.91,174.013 121.271,139.997 160.549,139.998 199.826,139.998 180.188,174.013 160.548,208.029 "/>
				<polygon id="g_T_6" iemlCode="*T:.**" onclick="clickSrc(evt)" class="styleI" points="180.273,242.061 160.634,208.044 199.913,208.045 239.19,208.044 219.551,242.06 199.912,276.077 "/>
				<polygon id="g_T_5" iemlCode="*T:.**" onclick="clickSrc(evt)" class="styleI" points="239.192,276.077 199.912,276.077 219.552,242.06 239.191,208.045 258.829,242.06 278.469,276.077 "/>
			</g>
			<g id="g_events_S">
				<polygon id="g_S_1" iemlCode="*T:.**" onclick="clickSrc(evt)" class="styleI" points="199.284,208.333 160.006,208.333 179.646,174.318 199.284,140.302 218.923,174.318 238.563,208.333 "/>
				<polygon id="g_S_2" iemlCode="*T:.**" onclick="clickSrc(evt)" class="styleI" points="218.958,242.21 199.318,276.228 179.679,242.211 160.041,208.195 199.317,208.195 238.596,208.195 "/>
				<polygon id="g_S_3" iemlCode="*T:.**" onclick="clickSrc(evt)" class="styleI" points="258.075,310.326 238.436,344.342 218.797,310.326 199.158,276.31 238.436,276.31 277.714,276.31 "/>
				<polygon id="g_S_4" iemlCode="*T:.**" onclick="clickSrc(evt)" class="styleI" points="159.95,276.293 120.672,276.293 140.312,242.278 159.95,208.263 179.589,242.278 199.228,276.294 "/>
				<polygon id="g_S_5" iemlCode="*T:.**" onclick="clickSrc(evt)" class="styleI" points="297.48,242.21 277.841,276.228 258.202,242.21 238.563,208.195 277.841,208.196 317.119,208.195 "/>
				<polygon id="g_S_6" iemlCode="*T:.**" onclick="clickSrc(evt)" class="styleI" points="238.563,276.228 199.284,276.228 218.924,242.211 238.563,208.196 258.202,242.211 277.841,276.228 "/>
			</g>
		</g>

		<g id="g_grille" visibility="hidden">

		<g id="g_events_grille" visibility="hidden">
			<path d="M238.967,140.713l39.281,0.001l-0.433-0.75l-19.64,34.016l-19.641,34.015h0.866l-19.638-34.016l-19.639-34.016
				l-0.433,0.75L238.967,140.713z M199.259,140.464l19.639,34.016l19.638,34.016l0.433,0.75l0.433-0.75l19.64-34.015l19.64-34.016
				l0.434-0.75h-0.866l-39.281-0.001l-39.275,0.001h-0.866L199.259,140.464z"/>
			<path d="M258.296,242.443l19.639,34.016l0.433-0.75l-39.278-0.001l-39.277,0.001l0.433,0.75l19.639-34.016l19.639-34.016h-0.866
				L258.296,242.443z M238.656,207.928l-19.639,34.016l-19.639,34.016l-0.433,0.75h0.866l39.277-0.001l39.278,0.001h0.866
				l-0.434-0.75l-19.639-34.016l-19.639-34.016l-0.433-0.75L238.656,207.928z"/>
			<path d="M278.229,208.717l39.279,0l-0.433-0.75l-19.64,34.017l-19.639,34.015h0.865l-19.639-34.016l-19.639-34.016l-0.433,0.75
				L278.229,208.717z M238.52,208.467l19.64,34.016l19.639,34.016l0.433,0.75l0.433-0.75l19.639-34.015l19.64-34.017l0.434-0.75
				h-0.866l-39.279,0l-39.277,0h-0.866L238.52,208.467z"/>
			<path d="M317.66,140.783h39.28l-0.433-0.75l-19.641,34.016l-19.639,34.015h0.865l-19.639-34.016l-19.64-34.015l-0.433,0.75H317.66
				z M277.95,140.533l19.64,34.015l19.639,34.016l0.433,0.75l0.433-0.75l19.639-34.015l19.641-34.016l0.434-0.75h-0.866h-39.28
				h-39.277h-0.866L277.95,140.533z"/>
			<path d="M336.817,242.527l19.64,34.016l0.433-0.75H317.61l-39.276-0.001l0.433,0.75l19.638-34.015l19.641-34.017h-0.865
				L336.817,242.527z M317.18,208.011l-19.641,34.017l-19.638,34.015l-0.434,0.75h0.866l39.276,0.001h39.279h0.866l-0.434-0.75
				l-19.64-34.016l-19.638-34.016l-0.433-0.75L317.18,208.011z"/>
			<path d="M356.788,140.748l120.116,66.713l-0.008-0.87l-120.006,69.478l0.684,0.183l-39.251-67.983l0.001,0.499l39.141-68.208
				L356.788,140.748z M317.458,208.768l39.251,67.983l0.25,0.434l0.434-0.251l120.006-69.478l0.763-0.441l-0.771-0.428
				l-120.116-66.713l-0.432-0.239l-0.245,0.427l-39.141,68.208l-0.144,0.25L317.458,208.768z"/>
			<path d="M297.454,174.479l19.64,34.017l0.433-0.75l-39.279-0.001l-39.278,0l0.433,0.75l19.64-34.015l19.639-34.017h-0.865
				L297.454,174.479z M277.815,139.964l-19.639,34.017l-19.641,34.015l-0.433,0.75h0.866l39.278,0l39.279,0.001h0.866l-0.434-0.75
				l-19.64-34.017l-19.639-34.016l-0.433-0.75L277.815,139.964z"/>
			<path d="M180.447,173.996l19.64-34.017h-0.866l19.639,34.017l19.639,34.016l0.433-0.75l-39.277-0.001l-39.278,0.001l0.433,0.75
				L180.447,173.996z M160.375,208.261l39.278-0.001l39.277,0.001h0.866l-0.433-0.75l-19.639-34.016l-19.639-34.017l-0.433-0.75
				l-0.433,0.75l-19.64,34.017l-19.639,34.016l-0.433,0.75H160.375z"/>
			<path d="M278.21,208.123h39.279l-0.433-0.75l-19.641,34.016l-19.639,34.016h0.865l-19.639-34.016l-19.639-34.016l-0.433,0.75
				H278.21z M238.499,207.873l19.64,34.016l19.639,34.016l0.433,0.75l0.433-0.75l19.639-34.016l19.641-34.016l0.434-0.75h-0.866
				H278.21h-39.278h-0.866L238.499,207.873z"/>
			<path d="M258.97,173.996l19.64-34.017h-0.865l19.639,34.017l19.639,34.016l0.433-0.75l-39.277-0.001l-39.278,0.001l0.433,0.75
				L258.97,173.996z M238.898,208.261l39.278-0.001l39.277,0.001h0.866l-0.434-0.75l-19.639-34.016l-19.639-34.017l-0.433-0.75
				l-0.433,0.75l-19.64,34.017l-19.639,34.016l-0.433,0.75H238.898z"/>
			<path d="M219.853,105.88l19.64-34.017h-0.866l19.64,34.017l19.639,34.016l0.433-0.75l-39.278-0.001l-39.278,0.001l0.433,0.75
				L219.853,105.88z M199.781,140.146l39.278-0.001l39.278,0.001h0.866l-0.434-0.75l-19.639-34.016l-19.639-34.017l-0.433-0.75
				l-0.433,0.75l-19.64,34.017l-19.639,34.016l-0.433,0.75H199.781z"/>
			<path d="M317.544,140.163h39.279l-0.433-0.75l-19.641,34.016l-19.639,34.016h0.865l-19.639-34.016l-19.639-34.016l-0.433,0.75
				H317.544z M277.834,139.913l19.639,34.016l19.639,34.016l0.433,0.75l0.433-0.75l19.639-34.016l19.641-34.016l0.434-0.75h-0.866
				h-39.279h-39.277H277.4L277.834,139.913z"/>
			<path d="M239.386,71.978L357.219,1.311l-0.757-0.428l0.166,138.667l0.5-0.5h-78.5l0.433,0.249l-39.5-68L239.386,71.978z
				 M278.628,140.049h78.5h0.501l-0.001-0.5L357.462,0.882L357.461,0l-0.756,0.454L238.871,71.12l-0.423,0.253l0.248,0.426l39.499,68
				l0.145,0.249H278.628z"/>
	
			<path d="M238.932,140.229h39.278l-0.433-0.75l-19.64,34.016l-19.639,34.016h0.866l-19.639-34.016l-19.64-34.016l-0.433,0.75
				H238.932z M199.22,139.979l19.64,34.016l19.639,34.016l0.433,0.75l0.433-0.75l19.638-34.016l19.64-34.016l0.434-0.75h-0.866
				h-39.278h-39.278h-0.866L199.22,139.979z"/>
			<path d="M239.192,275.577h-39.28l0.433,0.75l19.64-34.017l19.639-34.015h-0.866l19.638,34.015l19.64,34.017l0.433-0.75H239.192z
				 M278.901,275.827l-19.64-34.017l-19.637-34.015l-0.433-0.75l-0.433,0.75l-19.639,34.015l-19.64,34.017l-0.433,0.75h0.866h39.28
				h39.277h0.866L278.901,275.827z"/>
			<path d="M219.865,173.847l-19.639-34.016l-0.433,0.75l39.278,0h39.278l-0.433-0.75l-19.639,34.015l-19.64,34.017h0.866
				L219.865,173.847z M239.504,208.363l19.639-34.017l19.639-34.015l0.434-0.75h-0.866h-39.278l-39.278,0h-0.866l0.433,0.75
				l19.639,34.016l19.639,34.016l0.433,0.75L239.504,208.363z"/>
			<path d="M199.93,207.573h-39.28l0.433,0.75l19.64-34.016l19.639-34.015h-0.866l19.638,34.015l19.64,34.016l0.433-0.75H199.93z
				 M239.641,207.823l-19.64-34.016l-19.638-34.015l-0.433-0.75l-0.433,0.75l-19.639,34.015l-19.64,34.016l-0.433,0.75h0.866h39.28
				h39.277h0.866L239.641,207.823z"/>
			<path d="M160.5,275.508H121.22l0.433,0.75l19.64-34.017l19.639-34.015h-0.866l19.638,34.015l19.64,34.017l0.433-0.75H160.5z
				 M200.21,275.758l-19.64-34.017l-19.638-34.015l-0.433-0.75l-0.433,0.75l-19.639,34.015l-19.64,34.017l-0.433,0.75h0.866H160.5
				h39.277h0.866L200.21,275.758z"/>
			<path d="M141.343,173.763l-19.639-34.016l-0.433,0.75l39.278,0h39.277l-0.433-0.75l-19.639,34.015l-19.639,34.016h0.866
				L141.343,173.763z M160.981,208.279l19.639-34.016l19.639-34.015l0.433-0.75h-0.866h-39.277l-39.278,0h-0.866l0.433,0.75
				l19.639,34.016l19.639,34.016l0.433,0.75L160.981,208.279z"/>
			<path d="M121.372,275.544L1.256,208.83l0.008,0.87l120.005-69.478l-0.684-0.183l39.25,67.983l0-0.499l-39.14,68.209
				L121.372,275.544z M160.702,207.522l-39.25-67.983l-0.25-0.434l-0.433,0.251L0.763,208.834L0,209.276l0.771,0.428l120.116,66.714
				l0.431,0.24l0.245-0.428l39.14-68.209l0.143-0.25L160.702,207.522z"/>
			<path d="M180.706,241.811l-19.639-34.016l-0.433,0.75l39.279,0l39.278,0l-0.433-0.75l-19.639,34.016l-19.639,34.017h0.866
				L180.706,241.811z M200.345,276.327l19.639-34.017l19.639-34.016l0.433-0.75h-0.866l-39.278,0l-39.279,0h-0.866l0.433,0.75
				l19.639,34.016l19.639,34.016l0.433,0.75L200.345,276.327z"/>
			<path d="M296.953,173.677l19.64,34.019l0.433-0.75l-39.278-0.001l-39.278,0l0.433,0.75l19.639-34.015l19.639-34.016h-0.865
				L296.953,173.677z M277.314,139.164l-19.639,34.016l-19.64,34.015l-0.433,0.75h0.866l39.278,0l39.278,0.001h0.866l-0.434-0.75
				l-19.64-34.019l-19.639-34.013l-0.433-0.75L277.314,139.164z"/>
			<path d="M218.516,241.281l-19.639,34.016h0.866l-19.639-34.016l-19.639-34.015l-0.433,0.75h39.278h39.278l-0.433-0.75
				L218.516,241.281z M238.588,207.015H199.31h-39.278h-0.866l0.433,0.75l19.639,34.015l19.639,34.016l0.433,0.75l0.433-0.75
				l19.639-34.016l19.639-34.016l0.433-0.75H238.588z"/>
			<path d="M257.691,241.682l19.641,34.016l0.433-0.75h-39.28h-39.277l0.433,0.75l19.639-34.016l19.639-34.016h-0.866
				L257.691,241.682z M238.053,207.167l-19.639,34.016l-19.639,34.016l-0.433,0.75h0.866h39.277h39.28h0.866l-0.434-0.75
				l-19.641-34.016l-19.638-34.015l-0.433-0.75L238.053,207.167z"/>
			<path d="M336.239,241.862l19.64,34.017l0.433-0.75l-39.278-0.001h-39.276l0.433,0.75l19.639-34.016l19.638-34.016h-0.865
				L336.239,241.862z M316.601,207.347l-19.638,34.016l-19.639,34.016l-0.434,0.75h0.866h39.276l39.278,0.001h0.866l-0.434-0.75
				l-19.64-34.017l-19.639-34.015l-0.433-0.75L316.601,207.347z"/>
			<path d="M257.705,309.325l-19.64,34.016h0.866l-19.639-34.016l-19.638-34.016l-0.433,0.75h39.277h39.278l-0.433-0.75
				L257.705,309.325z M277.776,275.059h-39.278h-39.277h-0.866l0.433,0.75l19.638,34.016l19.639,34.016l0.433,0.75l0.433-0.75
				l19.639-34.016l19.639-34.016l0.434-0.75H277.776z"/>
			<path d="M355.834,275.73l2.282,137.38l0.749-0.442l-120.172-69.189l0.184,0.683l39.25-67.983l-0.432,0.25l78.64-0.207
				L355.834,275.73z M277.262,275.679l-39.251,67.983l-0.25,0.434l0.434,0.25l120.173,69.19l0.764,0.439l-0.015-0.881l-2.282-137.38
				l-0.008-0.493l-0.493,0.001l-78.64,0.207l-0.288,0.001L277.262,275.679z"/>
			<path d="M296.954,241.211l-19.64,34.017h0.865l-19.639-34.018l-19.639-34.016l-0.433,0.75l39.278,0.001l39.279-0.001l-0.433-0.75
				L296.954,241.211z M317.026,206.945l-39.279,0.001l-39.278-0.001h-0.866l0.433,0.75l19.64,34.016l19.639,34.018l0.433,0.75
				l0.433-0.75l19.64-34.017l19.64-34.016l0.434-0.75H317.026z"/>
			<path d="M180.54,242.28l-19.64-34.018l-0.433,0.75l39.279,0.001l39.278,0l-0.433-0.75l-19.64,34.015l-19.638,34.016h0.866
				L180.54,242.28z M200.179,276.793l19.638-34.016l19.64-34.015l0.433-0.75h-0.866l-39.278,0l-39.279-0.001h-0.866l0.433,0.75
				l19.64,34.018l19.639,34.014l0.433,0.75L200.179,276.793z"/>
			<path d="M258.977,174.677l19.639-34.016h-0.865l19.639,34.017l19.639,34.015l0.433-0.75h-39.277l-39.278,0l0.433,0.75
				L258.977,174.677z M238.904,208.943l39.278,0h39.277h0.866l-0.434-0.75l-19.639-34.015l-19.639-34.017l-0.433-0.75l-0.433,0.75
				l-19.639,34.016l-19.64,34.016l-0.433,0.75H238.904z"/>
			<path d="M219.802,174.276l-19.64-34.017l-0.433,0.75l39.279,0.001l39.277,0l-0.433-0.75l-19.64,34.015l-19.639,34.017h0.866
				L219.802,174.276z M239.44,208.792l19.638-34.017l19.64-34.015l0.434-0.75h-0.866l-39.277,0l-39.279-0.001h-0.866l0.433,0.75
				l19.64,34.017l19.639,34.016l0.433,0.75L239.44,208.792z"/>
			<path d="M141.253,174.095l-19.64-34.017l-0.433,0.75l39.279,0l39.277,0l-0.433-0.75l-19.639,34.015l-19.639,34.017h0.866
				L141.253,174.095z M160.892,208.611l19.639-34.017l19.639-34.015l0.433-0.75h-0.866l-39.277,0l-39.279,0h-0.866l0.433,0.75
				l19.64,34.017l19.639,34.016l0.433,0.75L160.892,208.611z"/>
			<path d="M219.789,106.633l19.639-34.016h-0.866l19.64,34.016l19.639,34.016l0.433-0.75l-39.278,0l-39.278,0l0.433,0.75
				L219.789,106.633z M199.716,140.898l39.278,0l39.278,0h0.866l-0.434-0.75l-19.639-34.016l-19.639-34.016l-0.433-0.75l-0.433,0.75
				l-19.639,34.016l-19.639,34.016l-0.433,0.75H199.716z"/>
			<path d="M121.659,140.228L119.376,2.848l-0.75,0.441l120.172,69.188l-0.184-0.683l-39.25,67.983l0.432-0.25l-78.64,0.208
				L121.659,140.228z M200.232,140.278l39.25-67.983l0.25-0.434l-0.434-0.25L119.126,2.423l-0.764-0.44l0.015,0.881l2.283,137.379
				l0.008,0.493l0.493-0.001l78.64-0.208l0.288-0.001L200.232,140.278z"/>
			<path d="M180.539,174.746l19.639-34.016h-0.866l19.639,34.017l19.639,34.016l0.433-0.75l-39.278,0l-39.279,0l0.433,0.75
				L180.539,174.746z M160.467,209.012l39.279,0l39.278,0h0.866l-0.433-0.75l-19.639-34.016l-19.639-34.017l-0.433-0.75l-0.433,0.75
				l-19.639,34.016l-19.639,34.016l-0.433,0.75H160.467z"/>
			<path d="M297.048,241.96l-19.64,34.018h0.865l-19.639-34.018l-19.638-34.016l-0.433,0.75l39.277,0.001l39.278-0.001l-0.433-0.75
				L297.048,241.96z M317.119,207.695l-39.278,0.001l-39.277-0.001h-0.866l0.433,0.75l19.639,34.016l19.639,34.018l0.433,0.75
				l0.433-0.75l19.64-34.018l19.639-34.015l0.434-0.75H317.119z"/>
			<path d="M199.284,207.833h-39.278l0.433,0.75l19.64-34.016l19.639-34.016h-0.866l19.639,34.016l19.64,34.016l0.433-0.75H199.284z
				 M238.996,208.083l-19.64-34.016l-19.639-34.016l-0.433-0.75l-0.433,0.75l-19.639,34.016l-19.64,34.016l-0.433,0.75h0.866h39.278
				h39.278h0.866L238.996,208.083z"/>
			<path d="M218.524,241.96l-19.64,34.018h0.866l-19.639-34.017l-19.638-34.016l-0.433,0.75h39.277h39.279l-0.433-0.75
				L218.524,241.96z M238.596,207.695h-39.279h-39.277h-0.866l0.433,0.75l19.638,34.016l19.639,34.017l0.433,0.75l0.433-0.75
				l19.64-34.018l19.639-34.015l0.433-0.75H238.596z"/>
			<path d="M257.643,310.076l-19.64,34.017h0.866l-19.639-34.017l-19.639-34.016l-0.433,0.75h39.277h39.278l-0.433-0.75
				L257.643,310.076z M277.714,275.81h-39.278h-39.277h-0.866l0.433,0.75l19.639,34.016l19.639,34.017l0.433,0.75l0.433-0.75
				l19.639-34.017l19.639-34.016l0.434-0.75H277.714z"/>
			<path d="M159.95,275.793h-39.278l0.433,0.75l19.64-34.016l19.639-34.015h-0.866l19.639,34.015l19.639,34.017l0.433-0.75
				L159.95,275.793z M199.661,276.044l-19.639-34.017l-19.639-34.015l-0.433-0.75l-0.433,0.75l-19.639,34.015l-19.64,34.016
				l-0.433,0.75h0.866h39.278l39.278,0.001h0.866L199.661,276.044z"/>
			<path d="M238.109,343.979l-117.833,70.666l0.757,0.428l-0.167-138.666l-0.5,0.5h78.5l-0.432-0.249l39.5,68L238.109,343.979z
				 M198.866,275.908h-78.5h-0.5l0,0.5l0.167,138.667l0.001,0.881l0.756-0.453l117.833-70.666l0.423-0.253l-0.248-0.426l-39.5-68
				l-0.145-0.249H198.866z"/>
			<path d="M238.563,275.728h-39.279l0.433,0.75l19.64-34.017l19.638-34.016h-0.866l19.64,34.016l19.639,34.017l0.433-0.75H238.563z
				 M278.273,275.978l-19.639-34.017l-19.639-34.016l-0.433-0.75l-0.433,0.75l-19.638,34.016l-19.64,34.017l-0.433,0.75h0.866h39.279
				h39.278h0.866L278.273,275.978z"/>
		</g>


		<g id="g_events_grille1" visibility="hidden" transform="scale(0.5) translate(240,200) rotate(0) ">
			<path d="M238.967,140.713l39.281,0.001l-0.433-0.75l-19.64,34.016l-19.641,34.015h0.866l-19.638-34.016l-19.639-34.016
				l-0.433,0.75L238.967,140.713z M199.259,140.464l19.639,34.016l19.638,34.016l0.433,0.75l0.433-0.75l19.64-34.015l19.64-34.016
				l0.434-0.75h-0.866l-39.281-0.001l-39.275,0.001h-0.866L199.259,140.464z"/>
			<path d="M258.296,242.443l19.639,34.016l0.433-0.75l-39.278-0.001l-39.277,0.001l0.433,0.75l19.639-34.016l19.639-34.016h-0.866
				L258.296,242.443z M238.656,207.928l-19.639,34.016l-19.639,34.016l-0.433,0.75h0.866l39.277-0.001l39.278,0.001h0.866
				l-0.434-0.75l-19.639-34.016l-19.639-34.016l-0.433-0.75L238.656,207.928z"/>
			<path d="M278.229,208.717l39.279,0l-0.433-0.75l-19.64,34.017l-19.639,34.015h0.865l-19.639-34.016l-19.639-34.016l-0.433,0.75
				L278.229,208.717z M238.52,208.467l19.64,34.016l19.639,34.016l0.433,0.75l0.433-0.75l19.639-34.015l19.64-34.017l0.434-0.75
				h-0.866l-39.279,0l-39.277,0h-0.866L238.52,208.467z"/>
			<path d="M317.66,140.783h39.28l-0.433-0.75l-19.641,34.016l-19.639,34.015h0.865l-19.639-34.016l-19.64-34.015l-0.433,0.75H317.66
				z M277.95,140.533l19.64,34.015l19.639,34.016l0.433,0.75l0.433-0.75l19.639-34.015l19.641-34.016l0.434-0.75h-0.866h-39.28
				h-39.277h-0.866L277.95,140.533z"/>
			<path d="M336.817,242.527l19.64,34.016l0.433-0.75H317.61l-39.276-0.001l0.433,0.75l19.638-34.015l19.641-34.017h-0.865
				L336.817,242.527z M317.18,208.011l-19.641,34.017l-19.638,34.015l-0.434,0.75h0.866l39.276,0.001h39.279h0.866l-0.434-0.75
				l-19.64-34.016l-19.638-34.016l-0.433-0.75L317.18,208.011z"/>
			<path d="M356.788,140.748l120.116,66.713l-0.008-0.87l-120.006,69.478l0.684,0.183l-39.251-67.983l0.001,0.499l39.141-68.208
				L356.788,140.748z M317.458,208.768l39.251,67.983l0.25,0.434l0.434-0.251l120.006-69.478l0.763-0.441l-0.771-0.428
				l-120.116-66.713l-0.432-0.239l-0.245,0.427l-39.141,68.208l-0.144,0.25L317.458,208.768z"/>
			<path d="M297.454,174.479l19.64,34.017l0.433-0.75l-39.279-0.001l-39.278,0l0.433,0.75l19.64-34.015l19.639-34.017h-0.865
				L297.454,174.479z M277.815,139.964l-19.639,34.017l-19.641,34.015l-0.433,0.75h0.866l39.278,0l39.279,0.001h0.866l-0.434-0.75
				l-19.64-34.017l-19.639-34.016l-0.433-0.75L277.815,139.964z"/>
			<path d="M180.447,173.996l19.64-34.017h-0.866l19.639,34.017l19.639,34.016l0.433-0.75l-39.277-0.001l-39.278,0.001l0.433,0.75
				L180.447,173.996z M160.375,208.261l39.278-0.001l39.277,0.001h0.866l-0.433-0.75l-19.639-34.016l-19.639-34.017l-0.433-0.75
				l-0.433,0.75l-19.64,34.017l-19.639,34.016l-0.433,0.75H160.375z"/>
			<path d="M278.21,208.123h39.279l-0.433-0.75l-19.641,34.016l-19.639,34.016h0.865l-19.639-34.016l-19.639-34.016l-0.433,0.75
				H278.21z M238.499,207.873l19.64,34.016l19.639,34.016l0.433,0.75l0.433-0.75l19.639-34.016l19.641-34.016l0.434-0.75h-0.866
				H278.21h-39.278h-0.866L238.499,207.873z"/>
			<path d="M258.97,173.996l19.64-34.017h-0.865l19.639,34.017l19.639,34.016l0.433-0.75l-39.277-0.001l-39.278,0.001l0.433,0.75
				L258.97,173.996z M238.898,208.261l39.278-0.001l39.277,0.001h0.866l-0.434-0.75l-19.639-34.016l-19.639-34.017l-0.433-0.75
				l-0.433,0.75l-19.64,34.017l-19.639,34.016l-0.433,0.75H238.898z"/>
			<path d="M219.853,105.88l19.64-34.017h-0.866l19.64,34.017l19.639,34.016l0.433-0.75l-39.278-0.001l-39.278,0.001l0.433,0.75
				L219.853,105.88z M199.781,140.146l39.278-0.001l39.278,0.001h0.866l-0.434-0.75l-19.639-34.016l-19.639-34.017l-0.433-0.75
				l-0.433,0.75l-19.64,34.017l-19.639,34.016l-0.433,0.75H199.781z"/>
			<path d="M317.544,140.163h39.279l-0.433-0.75l-19.641,34.016l-19.639,34.016h0.865l-19.639-34.016l-19.639-34.016l-0.433,0.75
				H317.544z M277.834,139.913l19.639,34.016l19.639,34.016l0.433,0.75l0.433-0.75l19.639-34.016l19.641-34.016l0.434-0.75h-0.866
				h-39.279h-39.277H277.4L277.834,139.913z"/>
			<path d="M239.386,71.978L357.219,1.311l-0.757-0.428l0.166,138.667l0.5-0.5h-78.5l0.433,0.249l-39.5-68L239.386,71.978z
				 M278.628,140.049h78.5h0.501l-0.001-0.5L357.462,0.882L357.461,0l-0.756,0.454L238.871,71.12l-0.423,0.253l0.248,0.426l39.499,68
				l0.145,0.249H278.628z"/>
	
			<path d="M238.932,140.229h39.278l-0.433-0.75l-19.64,34.016l-19.639,34.016h0.866l-19.639-34.016l-19.64-34.016l-0.433,0.75
				H238.932z M199.22,139.979l19.64,34.016l19.639,34.016l0.433,0.75l0.433-0.75l19.638-34.016l19.64-34.016l0.434-0.75h-0.866
				h-39.278h-39.278h-0.866L199.22,139.979z"/>
			<path d="M239.192,275.577h-39.28l0.433,0.75l19.64-34.017l19.639-34.015h-0.866l19.638,34.015l19.64,34.017l0.433-0.75H239.192z
				 M278.901,275.827l-19.64-34.017l-19.637-34.015l-0.433-0.75l-0.433,0.75l-19.639,34.015l-19.64,34.017l-0.433,0.75h0.866h39.28
				h39.277h0.866L278.901,275.827z"/>
			<path d="M219.865,173.847l-19.639-34.016l-0.433,0.75l39.278,0h39.278l-0.433-0.75l-19.639,34.015l-19.64,34.017h0.866
				L219.865,173.847z M239.504,208.363l19.639-34.017l19.639-34.015l0.434-0.75h-0.866h-39.278l-39.278,0h-0.866l0.433,0.75
				l19.639,34.016l19.639,34.016l0.433,0.75L239.504,208.363z"/>
			<path d="M199.93,207.573h-39.28l0.433,0.75l19.64-34.016l19.639-34.015h-0.866l19.638,34.015l19.64,34.016l0.433-0.75H199.93z
				 M239.641,207.823l-19.64-34.016l-19.638-34.015l-0.433-0.75l-0.433,0.75l-19.639,34.015l-19.64,34.016l-0.433,0.75h0.866h39.28
				h39.277h0.866L239.641,207.823z"/>
			<path d="M160.5,275.508H121.22l0.433,0.75l19.64-34.017l19.639-34.015h-0.866l19.638,34.015l19.64,34.017l0.433-0.75H160.5z
				 M200.21,275.758l-19.64-34.017l-19.638-34.015l-0.433-0.75l-0.433,0.75l-19.639,34.015l-19.64,34.017l-0.433,0.75h0.866H160.5
				h39.277h0.866L200.21,275.758z"/>
			<path d="M141.343,173.763l-19.639-34.016l-0.433,0.75l39.278,0h39.277l-0.433-0.75l-19.639,34.015l-19.639,34.016h0.866
				L141.343,173.763z M160.981,208.279l19.639-34.016l19.639-34.015l0.433-0.75h-0.866h-39.277l-39.278,0h-0.866l0.433,0.75
				l19.639,34.016l19.639,34.016l0.433,0.75L160.981,208.279z"/>
			<path d="M121.372,275.544L1.256,208.83l0.008,0.87l120.005-69.478l-0.684-0.183l39.25,67.983l0-0.499l-39.14,68.209
				L121.372,275.544z M160.702,207.522l-39.25-67.983l-0.25-0.434l-0.433,0.251L0.763,208.834L0,209.276l0.771,0.428l120.116,66.714
				l0.431,0.24l0.245-0.428l39.14-68.209l0.143-0.25L160.702,207.522z"/>
			<path d="M180.706,241.811l-19.639-34.016l-0.433,0.75l39.279,0l39.278,0l-0.433-0.75l-19.639,34.016l-19.639,34.017h0.866
				L180.706,241.811z M200.345,276.327l19.639-34.017l19.639-34.016l0.433-0.75h-0.866l-39.278,0l-39.279,0h-0.866l0.433,0.75
				l19.639,34.016l19.639,34.016l0.433,0.75L200.345,276.327z"/>
			<path d="M296.953,173.677l19.64,34.019l0.433-0.75l-39.278-0.001l-39.278,0l0.433,0.75l19.639-34.015l19.639-34.016h-0.865
				L296.953,173.677z M277.314,139.164l-19.639,34.016l-19.64,34.015l-0.433,0.75h0.866l39.278,0l39.278,0.001h0.866l-0.434-0.75
				l-19.64-34.019l-19.639-34.013l-0.433-0.75L277.314,139.164z"/>
			<path d="M218.516,241.281l-19.639,34.016h0.866l-19.639-34.016l-19.639-34.015l-0.433,0.75h39.278h39.278l-0.433-0.75
				L218.516,241.281z M238.588,207.015H199.31h-39.278h-0.866l0.433,0.75l19.639,34.015l19.639,34.016l0.433,0.75l0.433-0.75
				l19.639-34.016l19.639-34.016l0.433-0.75H238.588z"/>
			<path d="M257.691,241.682l19.641,34.016l0.433-0.75h-39.28h-39.277l0.433,0.75l19.639-34.016l19.639-34.016h-0.866
				L257.691,241.682z M238.053,207.167l-19.639,34.016l-19.639,34.016l-0.433,0.75h0.866h39.277h39.28h0.866l-0.434-0.75
				l-19.641-34.016l-19.638-34.015l-0.433-0.75L238.053,207.167z"/>
			<path d="M336.239,241.862l19.64,34.017l0.433-0.75l-39.278-0.001h-39.276l0.433,0.75l19.639-34.016l19.638-34.016h-0.865
				L336.239,241.862z M316.601,207.347l-19.638,34.016l-19.639,34.016l-0.434,0.75h0.866h39.276l39.278,0.001h0.866l-0.434-0.75
				l-19.64-34.017l-19.639-34.015l-0.433-0.75L316.601,207.347z"/>
			<path d="M257.705,309.325l-19.64,34.016h0.866l-19.639-34.016l-19.638-34.016l-0.433,0.75h39.277h39.278l-0.433-0.75
				L257.705,309.325z M277.776,275.059h-39.278h-39.277h-0.866l0.433,0.75l19.638,34.016l19.639,34.016l0.433,0.75l0.433-0.75
				l19.639-34.016l19.639-34.016l0.434-0.75H277.776z"/>
			<path d="M355.834,275.73l2.282,137.38l0.749-0.442l-120.172-69.189l0.184,0.683l39.25-67.983l-0.432,0.25l78.64-0.207
				L355.834,275.73z M277.262,275.679l-39.251,67.983l-0.25,0.434l0.434,0.25l120.173,69.19l0.764,0.439l-0.015-0.881l-2.282-137.38
				l-0.008-0.493l-0.493,0.001l-78.64,0.207l-0.288,0.001L277.262,275.679z"/>
			<path d="M296.954,241.211l-19.64,34.017h0.865l-19.639-34.018l-19.639-34.016l-0.433,0.75l39.278,0.001l39.279-0.001l-0.433-0.75
				L296.954,241.211z M317.026,206.945l-39.279,0.001l-39.278-0.001h-0.866l0.433,0.75l19.64,34.016l19.639,34.018l0.433,0.75
				l0.433-0.75l19.64-34.017l19.64-34.016l0.434-0.75H317.026z"/>
			<path d="M180.54,242.28l-19.64-34.018l-0.433,0.75l39.279,0.001l39.278,0l-0.433-0.75l-19.64,34.015l-19.638,34.016h0.866
				L180.54,242.28z M200.179,276.793l19.638-34.016l19.64-34.015l0.433-0.75h-0.866l-39.278,0l-39.279-0.001h-0.866l0.433,0.75
				l19.64,34.018l19.639,34.014l0.433,0.75L200.179,276.793z"/>
			<path d="M258.977,174.677l19.639-34.016h-0.865l19.639,34.017l19.639,34.015l0.433-0.75h-39.277l-39.278,0l0.433,0.75
				L258.977,174.677z M238.904,208.943l39.278,0h39.277h0.866l-0.434-0.75l-19.639-34.015l-19.639-34.017l-0.433-0.75l-0.433,0.75
				l-19.639,34.016l-19.64,34.016l-0.433,0.75H238.904z"/>
			<path d="M219.802,174.276l-19.64-34.017l-0.433,0.75l39.279,0.001l39.277,0l-0.433-0.75l-19.64,34.015l-19.639,34.017h0.866
				L219.802,174.276z M239.44,208.792l19.638-34.017l19.64-34.015l0.434-0.75h-0.866l-39.277,0l-39.279-0.001h-0.866l0.433,0.75
				l19.64,34.017l19.639,34.016l0.433,0.75L239.44,208.792z"/>
			<path d="M141.253,174.095l-19.64-34.017l-0.433,0.75l39.279,0l39.277,0l-0.433-0.75l-19.639,34.015l-19.639,34.017h0.866
				L141.253,174.095z M160.892,208.611l19.639-34.017l19.639-34.015l0.433-0.75h-0.866l-39.277,0l-39.279,0h-0.866l0.433,0.75
				l19.64,34.017l19.639,34.016l0.433,0.75L160.892,208.611z"/>
			<path d="M219.789,106.633l19.639-34.016h-0.866l19.64,34.016l19.639,34.016l0.433-0.75l-39.278,0l-39.278,0l0.433,0.75
				L219.789,106.633z M199.716,140.898l39.278,0l39.278,0h0.866l-0.434-0.75l-19.639-34.016l-19.639-34.016l-0.433-0.75l-0.433,0.75
				l-19.639,34.016l-19.639,34.016l-0.433,0.75H199.716z"/>
			<path d="M121.659,140.228L119.376,2.848l-0.75,0.441l120.172,69.188l-0.184-0.683l-39.25,67.983l0.432-0.25l-78.64,0.208
				L121.659,140.228z M200.232,140.278l39.25-67.983l0.25-0.434l-0.434-0.25L119.126,2.423l-0.764-0.44l0.015,0.881l2.283,137.379
				l0.008,0.493l0.493-0.001l78.64-0.208l0.288-0.001L200.232,140.278z"/>
			<path d="M180.539,174.746l19.639-34.016h-0.866l19.639,34.017l19.639,34.016l0.433-0.75l-39.278,0l-39.279,0l0.433,0.75
				L180.539,174.746z M160.467,209.012l39.279,0l39.278,0h0.866l-0.433-0.75l-19.639-34.016l-19.639-34.017l-0.433-0.75l-0.433,0.75
				l-19.639,34.016l-19.639,34.016l-0.433,0.75H160.467z"/>
			<path d="M297.048,241.96l-19.64,34.018h0.865l-19.639-34.018l-19.638-34.016l-0.433,0.75l39.277,0.001l39.278-0.001l-0.433-0.75
				L297.048,241.96z M317.119,207.695l-39.278,0.001l-39.277-0.001h-0.866l0.433,0.75l19.639,34.016l19.639,34.018l0.433,0.75
				l0.433-0.75l19.64-34.018l19.639-34.015l0.434-0.75H317.119z"/>
			<path d="M199.284,207.833h-39.278l0.433,0.75l19.64-34.016l19.639-34.016h-0.866l19.639,34.016l19.64,34.016l0.433-0.75H199.284z
				 M238.996,208.083l-19.64-34.016l-19.639-34.016l-0.433-0.75l-0.433,0.75l-19.639,34.016l-19.64,34.016l-0.433,0.75h0.866h39.278
				h39.278h0.866L238.996,208.083z"/>
			<path d="M218.524,241.96l-19.64,34.018h0.866l-19.639-34.017l-19.638-34.016l-0.433,0.75h39.277h39.279l-0.433-0.75
				L218.524,241.96z M238.596,207.695h-39.279h-39.277h-0.866l0.433,0.75l19.638,34.016l19.639,34.017l0.433,0.75l0.433-0.75
				l19.64-34.018l19.639-34.015l0.433-0.75H238.596z"/>
			<path d="M257.643,310.076l-19.64,34.017h0.866l-19.639-34.017l-19.639-34.016l-0.433,0.75h39.277h39.278l-0.433-0.75
				L257.643,310.076z M277.714,275.81h-39.278h-39.277h-0.866l0.433,0.75l19.639,34.016l19.639,34.017l0.433,0.75l0.433-0.75
				l19.639-34.017l19.639-34.016l0.434-0.75H277.714z"/>
			<path d="M159.95,275.793h-39.278l0.433,0.75l19.64-34.016l19.639-34.015h-0.866l19.639,34.015l19.639,34.017l0.433-0.75
				L159.95,275.793z M199.661,276.044l-19.639-34.017l-19.639-34.015l-0.433-0.75l-0.433,0.75l-19.639,34.015l-19.64,34.016
				l-0.433,0.75h0.866h39.278l39.278,0.001h0.866L199.661,276.044z"/>
			<path d="M238.109,343.979l-117.833,70.666l0.757,0.428l-0.167-138.666l-0.5,0.5h78.5l-0.432-0.249l39.5,68L238.109,343.979z
				 M198.866,275.908h-78.5h-0.5l0,0.5l0.167,138.667l0.001,0.881l0.756-0.453l117.833-70.666l0.423-0.253l-0.248-0.426l-39.5-68
				l-0.145-0.249H198.866z"/>
			<path d="M238.563,275.728h-39.279l0.433,0.75l19.64-34.017l19.638-34.016h-0.866l19.64,34.016l19.639,34.017l0.433-0.75H238.563z
				 M278.273,275.978l-19.639-34.017l-19.639-34.016l-0.433-0.75l-0.433,0.75l-19.638,34.016l-19.64,34.017l-0.433,0.75h0.866h39.279
				h39.278h0.866L278.273,275.978z"/>
		</g>


		<g id="g_events_grille2" visibility="hidden" transform="scale(0.75) translate(80,64) rotate(0) ">
			<path d="M238.967,140.713l39.281,0.001l-0.433-0.75l-19.64,34.016l-19.641,34.015h0.866l-19.638-34.016l-19.639-34.016
				l-0.433,0.75L238.967,140.713z M199.259,140.464l19.639,34.016l19.638,34.016l0.433,0.75l0.433-0.75l19.64-34.015l19.64-34.016
				l0.434-0.75h-0.866l-39.281-0.001l-39.275,0.001h-0.866L199.259,140.464z"/>
			<path d="M258.296,242.443l19.639,34.016l0.433-0.75l-39.278-0.001l-39.277,0.001l0.433,0.75l19.639-34.016l19.639-34.016h-0.866
				L258.296,242.443z M238.656,207.928l-19.639,34.016l-19.639,34.016l-0.433,0.75h0.866l39.277-0.001l39.278,0.001h0.866
				l-0.434-0.75l-19.639-34.016l-19.639-34.016l-0.433-0.75L238.656,207.928z"/>
			<path d="M278.229,208.717l39.279,0l-0.433-0.75l-19.64,34.017l-19.639,34.015h0.865l-19.639-34.016l-19.639-34.016l-0.433,0.75
				L278.229,208.717z M238.52,208.467l19.64,34.016l19.639,34.016l0.433,0.75l0.433-0.75l19.639-34.015l19.64-34.017l0.434-0.75
				h-0.866l-39.279,0l-39.277,0h-0.866L238.52,208.467z"/>
			<path d="M317.66,140.783h39.28l-0.433-0.75l-19.641,34.016l-19.639,34.015h0.865l-19.639-34.016l-19.64-34.015l-0.433,0.75H317.66
				z M277.95,140.533l19.64,34.015l19.639,34.016l0.433,0.75l0.433-0.75l19.639-34.015l19.641-34.016l0.434-0.75h-0.866h-39.28
				h-39.277h-0.866L277.95,140.533z"/>
			<path d="M336.817,242.527l19.64,34.016l0.433-0.75H317.61l-39.276-0.001l0.433,0.75l19.638-34.015l19.641-34.017h-0.865
				L336.817,242.527z M317.18,208.011l-19.641,34.017l-19.638,34.015l-0.434,0.75h0.866l39.276,0.001h39.279h0.866l-0.434-0.75
				l-19.64-34.016l-19.638-34.016l-0.433-0.75L317.18,208.011z"/>
			<path d="M356.788,140.748l120.116,66.713l-0.008-0.87l-120.006,69.478l0.684,0.183l-39.251-67.983l0.001,0.499l39.141-68.208
				L356.788,140.748z M317.458,208.768l39.251,67.983l0.25,0.434l0.434-0.251l120.006-69.478l0.763-0.441l-0.771-0.428
				l-120.116-66.713l-0.432-0.239l-0.245,0.427l-39.141,68.208l-0.144,0.25L317.458,208.768z"/>
			<path d="M297.454,174.479l19.64,34.017l0.433-0.75l-39.279-0.001l-39.278,0l0.433,0.75l19.64-34.015l19.639-34.017h-0.865
				L297.454,174.479z M277.815,139.964l-19.639,34.017l-19.641,34.015l-0.433,0.75h0.866l39.278,0l39.279,0.001h0.866l-0.434-0.75
				l-19.64-34.017l-19.639-34.016l-0.433-0.75L277.815,139.964z"/>
			<path d="M180.447,173.996l19.64-34.017h-0.866l19.639,34.017l19.639,34.016l0.433-0.75l-39.277-0.001l-39.278,0.001l0.433,0.75
				L180.447,173.996z M160.375,208.261l39.278-0.001l39.277,0.001h0.866l-0.433-0.75l-19.639-34.016l-19.639-34.017l-0.433-0.75
				l-0.433,0.75l-19.64,34.017l-19.639,34.016l-0.433,0.75H160.375z"/>
			<path d="M278.21,208.123h39.279l-0.433-0.75l-19.641,34.016l-19.639,34.016h0.865l-19.639-34.016l-19.639-34.016l-0.433,0.75
				H278.21z M238.499,207.873l19.64,34.016l19.639,34.016l0.433,0.75l0.433-0.75l19.639-34.016l19.641-34.016l0.434-0.75h-0.866
				H278.21h-39.278h-0.866L238.499,207.873z"/>
			<path d="M258.97,173.996l19.64-34.017h-0.865l19.639,34.017l19.639,34.016l0.433-0.75l-39.277-0.001l-39.278,0.001l0.433,0.75
				L258.97,173.996z M238.898,208.261l39.278-0.001l39.277,0.001h0.866l-0.434-0.75l-19.639-34.016l-19.639-34.017l-0.433-0.75
				l-0.433,0.75l-19.64,34.017l-19.639,34.016l-0.433,0.75H238.898z"/>
			<path d="M219.853,105.88l19.64-34.017h-0.866l19.64,34.017l19.639,34.016l0.433-0.75l-39.278-0.001l-39.278,0.001l0.433,0.75
				L219.853,105.88z M199.781,140.146l39.278-0.001l39.278,0.001h0.866l-0.434-0.75l-19.639-34.016l-19.639-34.017l-0.433-0.75
				l-0.433,0.75l-19.64,34.017l-19.639,34.016l-0.433,0.75H199.781z"/>
			<path d="M317.544,140.163h39.279l-0.433-0.75l-19.641,34.016l-19.639,34.016h0.865l-19.639-34.016l-19.639-34.016l-0.433,0.75
				H317.544z M277.834,139.913l19.639,34.016l19.639,34.016l0.433,0.75l0.433-0.75l19.639-34.016l19.641-34.016l0.434-0.75h-0.866
				h-39.279h-39.277H277.4L277.834,139.913z"/>
			<path d="M239.386,71.978L357.219,1.311l-0.757-0.428l0.166,138.667l0.5-0.5h-78.5l0.433,0.249l-39.5-68L239.386,71.978z
				 M278.628,140.049h78.5h0.501l-0.001-0.5L357.462,0.882L357.461,0l-0.756,0.454L238.871,71.12l-0.423,0.253l0.248,0.426l39.499,68
				l0.145,0.249H278.628z"/>
	
			<path d="M238.932,140.229h39.278l-0.433-0.75l-19.64,34.016l-19.639,34.016h0.866l-19.639-34.016l-19.64-34.016l-0.433,0.75
				H238.932z M199.22,139.979l19.64,34.016l19.639,34.016l0.433,0.75l0.433-0.75l19.638-34.016l19.64-34.016l0.434-0.75h-0.866
				h-39.278h-39.278h-0.866L199.22,139.979z"/>
			<path d="M239.192,275.577h-39.28l0.433,0.75l19.64-34.017l19.639-34.015h-0.866l19.638,34.015l19.64,34.017l0.433-0.75H239.192z
				 M278.901,275.827l-19.64-34.017l-19.637-34.015l-0.433-0.75l-0.433,0.75l-19.639,34.015l-19.64,34.017l-0.433,0.75h0.866h39.28
				h39.277h0.866L278.901,275.827z"/>
			<path d="M219.865,173.847l-19.639-34.016l-0.433,0.75l39.278,0h39.278l-0.433-0.75l-19.639,34.015l-19.64,34.017h0.866
				L219.865,173.847z M239.504,208.363l19.639-34.017l19.639-34.015l0.434-0.75h-0.866h-39.278l-39.278,0h-0.866l0.433,0.75
				l19.639,34.016l19.639,34.016l0.433,0.75L239.504,208.363z"/>
			<path d="M199.93,207.573h-39.28l0.433,0.75l19.64-34.016l19.639-34.015h-0.866l19.638,34.015l19.64,34.016l0.433-0.75H199.93z
				 M239.641,207.823l-19.64-34.016l-19.638-34.015l-0.433-0.75l-0.433,0.75l-19.639,34.015l-19.64,34.016l-0.433,0.75h0.866h39.28
				h39.277h0.866L239.641,207.823z"/>
			<path d="M160.5,275.508H121.22l0.433,0.75l19.64-34.017l19.639-34.015h-0.866l19.638,34.015l19.64,34.017l0.433-0.75H160.5z
				 M200.21,275.758l-19.64-34.017l-19.638-34.015l-0.433-0.75l-0.433,0.75l-19.639,34.015l-19.64,34.017l-0.433,0.75h0.866H160.5
				h39.277h0.866L200.21,275.758z"/>
			<path d="M141.343,173.763l-19.639-34.016l-0.433,0.75l39.278,0h39.277l-0.433-0.75l-19.639,34.015l-19.639,34.016h0.866
				L141.343,173.763z M160.981,208.279l19.639-34.016l19.639-34.015l0.433-0.75h-0.866h-39.277l-39.278,0h-0.866l0.433,0.75
				l19.639,34.016l19.639,34.016l0.433,0.75L160.981,208.279z"/>
			<path d="M121.372,275.544L1.256,208.83l0.008,0.87l120.005-69.478l-0.684-0.183l39.25,67.983l0-0.499l-39.14,68.209
				L121.372,275.544z M160.702,207.522l-39.25-67.983l-0.25-0.434l-0.433,0.251L0.763,208.834L0,209.276l0.771,0.428l120.116,66.714
				l0.431,0.24l0.245-0.428l39.14-68.209l0.143-0.25L160.702,207.522z"/>
			<path d="M180.706,241.811l-19.639-34.016l-0.433,0.75l39.279,0l39.278,0l-0.433-0.75l-19.639,34.016l-19.639,34.017h0.866
				L180.706,241.811z M200.345,276.327l19.639-34.017l19.639-34.016l0.433-0.75h-0.866l-39.278,0l-39.279,0h-0.866l0.433,0.75
				l19.639,34.016l19.639,34.016l0.433,0.75L200.345,276.327z"/>
			<path d="M296.953,173.677l19.64,34.019l0.433-0.75l-39.278-0.001l-39.278,0l0.433,0.75l19.639-34.015l19.639-34.016h-0.865
				L296.953,173.677z M277.314,139.164l-19.639,34.016l-19.64,34.015l-0.433,0.75h0.866l39.278,0l39.278,0.001h0.866l-0.434-0.75
				l-19.64-34.019l-19.639-34.013l-0.433-0.75L277.314,139.164z"/>
			<path d="M218.516,241.281l-19.639,34.016h0.866l-19.639-34.016l-19.639-34.015l-0.433,0.75h39.278h39.278l-0.433-0.75
				L218.516,241.281z M238.588,207.015H199.31h-39.278h-0.866l0.433,0.75l19.639,34.015l19.639,34.016l0.433,0.75l0.433-0.75
				l19.639-34.016l19.639-34.016l0.433-0.75H238.588z"/>
			<path d="M257.691,241.682l19.641,34.016l0.433-0.75h-39.28h-39.277l0.433,0.75l19.639-34.016l19.639-34.016h-0.866
				L257.691,241.682z M238.053,207.167l-19.639,34.016l-19.639,34.016l-0.433,0.75h0.866h39.277h39.28h0.866l-0.434-0.75
				l-19.641-34.016l-19.638-34.015l-0.433-0.75L238.053,207.167z"/>
			<path d="M336.239,241.862l19.64,34.017l0.433-0.75l-39.278-0.001h-39.276l0.433,0.75l19.639-34.016l19.638-34.016h-0.865
				L336.239,241.862z M316.601,207.347l-19.638,34.016l-19.639,34.016l-0.434,0.75h0.866h39.276l39.278,0.001h0.866l-0.434-0.75
				l-19.64-34.017l-19.639-34.015l-0.433-0.75L316.601,207.347z"/>
			<path d="M257.705,309.325l-19.64,34.016h0.866l-19.639-34.016l-19.638-34.016l-0.433,0.75h39.277h39.278l-0.433-0.75
				L257.705,309.325z M277.776,275.059h-39.278h-39.277h-0.866l0.433,0.75l19.638,34.016l19.639,34.016l0.433,0.75l0.433-0.75
				l19.639-34.016l19.639-34.016l0.434-0.75H277.776z"/>
			<path d="M355.834,275.73l2.282,137.38l0.749-0.442l-120.172-69.189l0.184,0.683l39.25-67.983l-0.432,0.25l78.64-0.207
				L355.834,275.73z M277.262,275.679l-39.251,67.983l-0.25,0.434l0.434,0.25l120.173,69.19l0.764,0.439l-0.015-0.881l-2.282-137.38
				l-0.008-0.493l-0.493,0.001l-78.64,0.207l-0.288,0.001L277.262,275.679z"/>
			<path d="M296.954,241.211l-19.64,34.017h0.865l-19.639-34.018l-19.639-34.016l-0.433,0.75l39.278,0.001l39.279-0.001l-0.433-0.75
				L296.954,241.211z M317.026,206.945l-39.279,0.001l-39.278-0.001h-0.866l0.433,0.75l19.64,34.016l19.639,34.018l0.433,0.75
				l0.433-0.75l19.64-34.017l19.64-34.016l0.434-0.75H317.026z"/>
			<path d="M180.54,242.28l-19.64-34.018l-0.433,0.75l39.279,0.001l39.278,0l-0.433-0.75l-19.64,34.015l-19.638,34.016h0.866
				L180.54,242.28z M200.179,276.793l19.638-34.016l19.64-34.015l0.433-0.75h-0.866l-39.278,0l-39.279-0.001h-0.866l0.433,0.75
				l19.64,34.018l19.639,34.014l0.433,0.75L200.179,276.793z"/>
			<path d="M258.977,174.677l19.639-34.016h-0.865l19.639,34.017l19.639,34.015l0.433-0.75h-39.277l-39.278,0l0.433,0.75
				L258.977,174.677z M238.904,208.943l39.278,0h39.277h0.866l-0.434-0.75l-19.639-34.015l-19.639-34.017l-0.433-0.75l-0.433,0.75
				l-19.639,34.016l-19.64,34.016l-0.433,0.75H238.904z"/>
			<path d="M219.802,174.276l-19.64-34.017l-0.433,0.75l39.279,0.001l39.277,0l-0.433-0.75l-19.64,34.015l-19.639,34.017h0.866
				L219.802,174.276z M239.44,208.792l19.638-34.017l19.64-34.015l0.434-0.75h-0.866l-39.277,0l-39.279-0.001h-0.866l0.433,0.75
				l19.64,34.017l19.639,34.016l0.433,0.75L239.44,208.792z"/>
			<path d="M141.253,174.095l-19.64-34.017l-0.433,0.75l39.279,0l39.277,0l-0.433-0.75l-19.639,34.015l-19.639,34.017h0.866
				L141.253,174.095z M160.892,208.611l19.639-34.017l19.639-34.015l0.433-0.75h-0.866l-39.277,0l-39.279,0h-0.866l0.433,0.75
				l19.64,34.017l19.639,34.016l0.433,0.75L160.892,208.611z"/>
			<path d="M219.789,106.633l19.639-34.016h-0.866l19.64,34.016l19.639,34.016l0.433-0.75l-39.278,0l-39.278,0l0.433,0.75
				L219.789,106.633z M199.716,140.898l39.278,0l39.278,0h0.866l-0.434-0.75l-19.639-34.016l-19.639-34.016l-0.433-0.75l-0.433,0.75
				l-19.639,34.016l-19.639,34.016l-0.433,0.75H199.716z"/>
			<path d="M121.659,140.228L119.376,2.848l-0.75,0.441l120.172,69.188l-0.184-0.683l-39.25,67.983l0.432-0.25l-78.64,0.208
				L121.659,140.228z M200.232,140.278l39.25-67.983l0.25-0.434l-0.434-0.25L119.126,2.423l-0.764-0.44l0.015,0.881l2.283,137.379
				l0.008,0.493l0.493-0.001l78.64-0.208l0.288-0.001L200.232,140.278z"/>
			<path d="M180.539,174.746l19.639-34.016h-0.866l19.639,34.017l19.639,34.016l0.433-0.75l-39.278,0l-39.279,0l0.433,0.75
				L180.539,174.746z M160.467,209.012l39.279,0l39.278,0h0.866l-0.433-0.75l-19.639-34.016l-19.639-34.017l-0.433-0.75l-0.433,0.75
				l-19.639,34.016l-19.639,34.016l-0.433,0.75H160.467z"/>
			<path d="M297.048,241.96l-19.64,34.018h0.865l-19.639-34.018l-19.638-34.016l-0.433,0.75l39.277,0.001l39.278-0.001l-0.433-0.75
				L297.048,241.96z M317.119,207.695l-39.278,0.001l-39.277-0.001h-0.866l0.433,0.75l19.639,34.016l19.639,34.018l0.433,0.75
				l0.433-0.75l19.64-34.018l19.639-34.015l0.434-0.75H317.119z"/>
			<path d="M199.284,207.833h-39.278l0.433,0.75l19.64-34.016l19.639-34.016h-0.866l19.639,34.016l19.64,34.016l0.433-0.75H199.284z
				 M238.996,208.083l-19.64-34.016l-19.639-34.016l-0.433-0.75l-0.433,0.75l-19.639,34.016l-19.64,34.016l-0.433,0.75h0.866h39.278
				h39.278h0.866L238.996,208.083z"/>
			<path d="M218.524,241.96l-19.64,34.018h0.866l-19.639-34.017l-19.638-34.016l-0.433,0.75h39.277h39.279l-0.433-0.75
				L218.524,241.96z M238.596,207.695h-39.279h-39.277h-0.866l0.433,0.75l19.638,34.016l19.639,34.017l0.433,0.75l0.433-0.75
				l19.64-34.018l19.639-34.015l0.433-0.75H238.596z"/>
			<path d="M257.643,310.076l-19.64,34.017h0.866l-19.639-34.017l-19.639-34.016l-0.433,0.75h39.277h39.278l-0.433-0.75
				L257.643,310.076z M277.714,275.81h-39.278h-39.277h-0.866l0.433,0.75l19.639,34.016l19.639,34.017l0.433,0.75l0.433-0.75
				l19.639-34.017l19.639-34.016l0.434-0.75H277.714z"/>
			<path d="M159.95,275.793h-39.278l0.433,0.75l19.64-34.016l19.639-34.015h-0.866l19.639,34.015l19.639,34.017l0.433-0.75
				L159.95,275.793z M199.661,276.044l-19.639-34.017l-19.639-34.015l-0.433-0.75l-0.433,0.75l-19.639,34.015l-19.64,34.016
				l-0.433,0.75h0.866h39.278l39.278,0.001h0.866L199.661,276.044z"/>
			<path d="M238.109,343.979l-117.833,70.666l0.757,0.428l-0.167-138.666l-0.5,0.5h78.5l-0.432-0.249l39.5,68L238.109,343.979z
				 M198.866,275.908h-78.5h-0.5l0,0.5l0.167,138.667l0.001,0.881l0.756-0.453l117.833-70.666l0.423-0.253l-0.248-0.426l-39.5-68
				l-0.145-0.249H198.866z"/>
			<path d="M238.563,275.728h-39.279l0.433,0.75l19.64-34.017l19.638-34.016h-0.866l19.64,34.016l19.639,34.017l0.433-0.75H238.563z
				 M278.273,275.978l-19.639-34.017l-19.639-34.016l-0.433-0.75l-0.433,0.75l-19.638,34.016l-19.64,34.017l-0.433,0.75h0.866h39.279
				h39.278h0.866L278.273,275.978z"/>
		</g>
		</g>

		<g id="RecordPoints" />


	</g>
</svg>
